<svg xmlns="http://www.w3.org/2000/svg" x="0px" y="0px" width="100" height="100" viewBox="0 0 24 24">
<path d="M12,8c-2.2,0-4,1.8-4,4s1.8,4,4,4s4-1.8,4-4S14.2,8,12,8z"></path><path d="M16,18.9c0.7-0.4,1.5-0.4,2.1-0.2c0.6,0.2,1.2,0,1.6-0.4c0.7-0.8,1.2-1.8,1.6-2.8c0.2-0.6,0-1.2-0.5-1.6 C20.3,13.4,20,12.8,20,12s0.3-1.4,0.9-1.9c0.5-0.4,0.7-1.1,0.5-1.6c-0.4-1-0.9-2-1.6-2.8c-0.4-0.5-1-0.6-1.6-0.4 c-0.7,0.3-1.5,0.2-2.1-0.2c-0.7-0.4-1.1-1.1-1.2-1.8c-0.1-0.6-0.6-1.1-1.1-1.2C13.1,2,12.6,2,12,2s-1.1,0-1.6,0.1 C9.8,2.2,9.3,2.7,9.2,3.3C9.1,4,8.7,4.7,8,5.1C7.3,5.5,6.5,5.5,5.9,5.2C5.3,5,4.7,5.2,4.3,5.7C3.6,6.5,3,7.4,2.7,8.5 c-0.2,0.6,0,1.2,0.5,1.6C3.7,10.6,4,11.2,4,12s-0.3,1.4-0.9,1.9c-0.5,0.4-0.7,1.1-0.5,1.6c0.4,1,0.9,2,1.6,2.8 c0.4,0.5,1,0.6,1.6,0.4c0.7-0.3,1.5-0.2,2.1,0.2c0.7,0.4,1.1,1.1,1.2,1.8c0.1,0.6,0.6,1.1,1.1,1.2C10.9,22,11.4,22,12,22 s1.1,0,1.6-0.1c0.6-0.1,1.1-0.6,1.1-1.2C14.9,20,15.3,19.3,16,18.9z" opacity=".35"></path>
</svg>