<svg xmlns="http://www.w3.org/2000/svg" x="0px" y="0px" width="100" height="100" viewBox="0 0 24 24">
<path d="M21.156,17.081l-5.714-5.726c-0.471-0.472-1.234-0.474-1.708-0.005l-0.193,0.191L8.09,6.09 C7.764,5.113,7.149,4.259,6.325,3.641L4.478,2.256c-0.51-0.382-1.223-0.332-1.673,0.119l-0.43,0.43 C1.924,3.255,1.874,3.968,2.256,4.478l1.385,1.847C4.259,7.149,5.113,7.764,6.09,8.09l5.442,5.442l-0.173,0.171 c-0.476,0.471-0.478,1.24-0.005,1.714l5.728,5.739c1.125,1.125,2.949,1.125,4.075,0C22.281,20.031,22.281,18.207,21.156,17.081z" opacity=".35"></path><path d="M2.847,21.153c1.129,1.129,2.96,1.129,4.089,0L16,12.108l-4.07-4.109l-9.083,9.066C1.718,18.193,1.718,20.024,2.847,21.153z"></path><path d="M18.214,8.614c-0.829,0.829-2.205,0.778-2.967-0.153c-0.662-0.81-0.521-2.016,0.219-2.756l2.261-2.261	c0.418-0.418,0.226-1.144-0.349-1.282c-0.837-0.2-1.741-0.225-2.679-0.022C12.37,2.646,10.514,4.554,10.098,6.9	c-0.74,4.17,2.832,7.742,7.002,7.002c2.347-0.416,4.254-2.272,4.759-4.602c0.203-0.938,0.179-1.842-0.022-2.679	c-0.138-0.575-0.863-0.767-1.281-0.35C19.553,7.276,18.434,8.394,18.214,8.614z"></path>
</svg>